<svg id="Calque_1" data-name="Calque 1" xmlns="http://www.w3.org/2000/svg" viewBox="0 0 569.66 824.74"><defs><style>.cls-1{fill:#fff;}</style></defs><path class="cls-1" d="M281.08,829.32c-14.83,0-28.91.88-42.84-.19-25.39-2-50.58-5.78-74.87-13.81-49.92-16.48-90-45.44-116-92.13-12.25-22-19.6-45.57-24.62-70.22-3-14.73-.47-28.23,3.38-42,5.68-20.26,12.65-40.23,17.11-60.76,8.77-40.29-.5-76-30.54-105.36-2.6-2.53-5.69-4.56-8-7.4,16.39,3.78,37.94,16.18,53,30.11,15.43,14.33,24.75,32.08,28.71,52.82s2.2,41.09-1,61.6l2.1,1.25c5-6.37,10.49-12.39,14.76-19.19,14.09-22.42,16.14-46.86,7.82-71.38-7.76-22.9-17.41-45.21-27-67.44C72.94,401.78,62.27,378.54,58,353.09c-5.83-34.65,3.47-65.16,25.93-91.85,4.78-5.68,10-11,15-16.48l1.55.77c-1.14,3.64-2.17,7.33-3.42,10.93-7.37,21.22-10.15,43-4.55,64.85,5,19.33,16,35.63,30.49,49.29,11.86,11.21,24.2,21.94,36.73,32.4,18.58,15.49,36.51,31.39,45.24,57,2.11-4.16,3.83-6.71,4.75-9.51,6.63-20.28,5.45-40.88-1.53-60.38-11.41-31.87-24.77-63.05-37.1-94.6-7.19-18.43-13-37.18-16-56.92-7.15-47.21,12.56-83.13,46-113.58,18.87-17.16,40.29-30.67,62.65-42.76a29.15,29.15,0,0,1,3.24-1.17c-3.67,9.91-7.35,18.93-10.37,28.16-8.11,24.77-10.4,49.87-5.94,75.85,6.42,37.39,25.84,68,48.91,96.63,22.38,27.73,46.4,54.13,69.1,81.61,17.4,21.06,33.35,43.29,43.81,68.78,10.94,26.64,15.2,54.21,9.32,82.84a54,54,0,0,0-.51,7l1.68.43c2.91-9.23,5.94-18.42,8.7-27.69,6.91-23.23,11.47-47,11.77-71.19A256.53,256.53,0,0,0,439.22,376c-6.77-38.08-27.6-70.51-43.78-104.79a5.94,5.94,0,0,1-.33-4.35c2.65,2.48,5.32,4.95,7.94,7.46s5.23,5.13,7.86,7.68c23.94,23.24,46.57,47.68,66.16,74.72,20.83,28.76,37.42,59.72,45.77,94.58A233.32,233.32,0,0,1,527,536.69c-4.8,36.91-16.86,71.38-32.71,104.75a9.58,9.58,0,0,0-1,4.86,367.32,367.32,0,0,0,45.93-61.62c13-22.11,23.79-45.57,35.16-67.67-.22,2.57-.38,6.58-1,10.53-3.14,21.75-6,43.54-9.74,65.19-2,11.64-5.44,23-8.33,34.51-9.13,36.3-22.91,70.73-43.76,101.87-22.86,34.15-53.08,59.86-91.22,76a259.86,259.86,0,0,1-68.27,18.53c-17.52,2.26-35.06,4.3-53.48,6.55-.33-4.07-.67-7.21-.84-10.35-1.14-21.14-2.36-42.29-3.32-63.44-.43-9.47,3.84-12.95,13.17-11.32q37,6.45,74,12.94c2.05.36,4.16.4,7.29.69-3.53-9.77-6.53-18.72-10-27.48-2.18-5.46-1.1-9.08,3.58-12.82,26.34-21,52.46-42.33,78.64-63.55,7.53-6.11,7.15-10.59-1.56-14.48-16.52-7.38-12.91-7.68-8.91-20.62,4.26-13.81,8.93-27.5,13.4-41.25.5-1.56.83-3.19,1.49-5.76L426.34,581c-3.38.71-6.84,1.18-10.12,2.21-6.6,2.07-10-.61-12.25-6.75-2.4-6.62-5.49-13-8.67-20.41-7.18,7.66-13.66,14.54-20.11,21.44s-12.43,13.85-19.13,20.25c-2.26,2.16-6.43,4.21-9.13,3.61-5.09-1.12-3.68-6.16-3-9.84,4.75-25,9.68-50,14.54-75,1.51-7.76,3-15.52,4.68-24.51-10.45,6-19.77,11.4-29.11,16.73-7.25,4.14-9.51,3.55-13.26-3.78-9-17.47-17.81-35-26.72-52.52-1.27-2.48-2.64-4.9-4.47-8.28-6.94,13.58-13.51,26.4-20.05,39.22-3.54,6.93-7,13.88-10.57,20.79-4.3,8.35-6.2,8.85-14.6,4L216.24,492c1.54,8.47,2.79,15.75,4.2,23q7.34,37.81,14.78,75.62c.12.63.5,1.34.35,1.89-.88,3-1.88,6-2.85,9.08-3-1-6.86-1.13-8.82-3.13-11.78-12-23.14-24.52-34.58-36.89-1.46-1.57-2.6-3.43-4.84-6.43-3.3,7.61-5.89,13.43-8.34,19.29-4.3,10.27-4.74,10.53-15.32,8.27q-21.23-4.53-42.44-9c-1.21-.25-2.45-.39-4.76-.75,3.35,10.54,6.42,20.29,9.55,30,2.52,7.81,4.87,15.68,7.74,23.35,2,5.34.64,8.75-4.42,11-2.57,1.14-5.1,2.36-7.63,3.56-7.33,3.49-7.82,8.27-1.36,13.51q27,21.82,53.92,43.61c8.4,6.79,16.61,13.85,25.28,20.28,5.12,3.79,5.89,7.73,3.61,13.39-3.48,8.57-6.41,17.36-10,27.29,5.62-.78,10.38-1.3,15.09-2.13,22.53-3.94,45.05-8,67.59-11.94,7.42-1.29,12.26,2.32,11.95,9.6C283.85,779.21,282.41,804,281.08,829.32Z" transform="translate(-4.69 -5.45)"/><path class="cls-1" d="M345.09,167.37c-15.2-17.65-27-35.93-31.93-57.41-4.58-19.86-2.23-39.64,8-57.6,9.11-16,19.18-31.41,29.52-46.91-4.26,24.13,8.7,44.2,14.68,65.71,6.89,24.84,5.21,48.48-6.21,71.41C355.08,150.76,350.15,158.52,345.09,167.37Z" transform="translate(-4.69 -5.45)"/><path class="cls-1" d="M408.27,224.12a85.83,85.83,0,0,1-14-29.17c-5-17.89-.16-34.8,4.81-51.8,2.14-7.3,3.17-14.92,4.65-22.15C437.14,155.42,435,194,408.27,224.12Z" transform="translate(-4.69 -5.45)"/></svg>