<svg id="Calque_1" data-name="Calque 1" xmlns="http://www.w3.org/2000/svg" viewBox="0 0 302.43 472.86"><defs><style>.cls-1{fill:#fff;}.cls-2{fill:#a4cff3;}</style></defs><path class="cls-1" d="M-42.26,0H260.17V472.86H-42.26ZM110.63,276.09v5.51q0,81.43,0,162.87c0,1.53,0,3.07.08,4.59,1.18,15.73,14.15,25.24,28.76,21.14,10-2.8,16.08-11.55,16.08-23.21q0-146,0-291.92v-5.55l5.19.26v5.38q0,51.79,0,103.58c0,10.59,6.67,17.52,16.53,17.65s16.78-6.83,16.81-17.36c.1-39.81.29-79.63-.05-119.44-.22-25.07-20.43-50.21-50.68-49.64-24.91.48-49.84,0-74.76.17a53.59,53.59,0,0,0-13.19,1.54c-21.45,5.6-36.65,26-36.69,49.17-.08,39,0,78,0,116.94a36.26,36.26,0,0,0,.18,4.17,15.9,15.9,0,0,0,15.3,14.43c7.65.49,14.23-4.37,16.17-12.26a33.26,33.26,0,0,0,.72-7.86q.06-50.73,0-101.48v-5h6.21V445.13c0,1.53-.06,3.07,0,4.59.82,15.41,14.46,25,29.06,20.37,9.89-3.1,15.83-12,15.83-24q0-82.49,0-165v-5.06Zm-43-233.65c0,21.71,17.28,38.74,39.17,38.7,21.45,0,38.44-17.27,38.44-39a38.81,38.81,0,1,0-77.61.27Z" transform="translate(42.26)"/><path class="cls-2" d="M110.63,276.09h-8.36v5.06q0,82.47,0,165c0,11.94-5.94,20.88-15.83,24-14.6,4.59-28.24-5-29.06-20.37-.09-1.52,0-3.06,0-4.59V149.77H51.13v5q0,50.74,0,101.48a33.26,33.26,0,0,1-.72,7.86c-1.94,7.89-8.52,12.75-16.17,12.26a15.9,15.9,0,0,1-15.3-14.43,36.26,36.26,0,0,1-.18-4.17c0-39-.06-78,0-116.94,0-23.14,15.24-43.57,36.69-49.17a53.59,53.59,0,0,1,13.19-1.54c24.92-.14,49.85.31,74.76-.17,30.25-.57,50.46,24.57,50.68,49.64.34,39.81.15,79.63.05,119.44,0,10.53-7,17.48-16.81,17.36s-16.51-7.06-16.53-17.65q-.1-51.8,0-103.58v-5.38l-5.19-.26v5.55q0,146,0,291.92c0,11.66-6.1,20.41-16.08,23.21-14.61,4.1-27.58-5.41-28.76-21.14-.12-1.52-.08-3.06-.08-4.59q0-81.44,0-162.87Z" transform="translate(42.26)"/><path class="cls-2" d="M67.64,42.44a38.81,38.81,0,1,1,77.61-.27c0,21.7-17,38.92-38.44,39C84.92,81.18,67.69,64.15,67.64,42.44Z" transform="translate(42.26)"/></svg>